<svg width="710" height="170" viewBox="0 0 710 170" fill="none" xmlns="http://www.w3.org/2000/svg">
<path fill-rule="evenodd" clip-rule="evenodd" d="M229.734 131.518C232.814 124.07 234.354 116.049 234.354 107.455C234.354 98.2884 232.814 89.9811 229.734 82.5332C226.655 75.0137 222.465 68.6042 217.166 63.3047C211.867 57.9336 205.636 53.8158 198.475 50.9512C191.385 48.015 183.758 46.5469 175.594 46.5469C167.501 46.5469 159.874 48.0866 152.713 51.166C145.623 54.2454 139.393 58.5065 134.021 63.9492C128.722 69.3203 124.533 75.7298 121.453 83.1777C118.374 90.6257 116.834 98.7181 116.834 107.455C116.834 116.049 118.374 124.07 121.453 131.518C121.941 132.686 122.457 133.83 123 134.95V163H151.552C151.937 163.18 152.323 163.356 152.713 163.529C159.874 166.609 167.501 168.148 175.594 168.148C183.758 168.148 191.385 166.609 198.475 163.529C205.636 160.378 211.867 156.117 217.166 150.746C222.465 145.303 226.655 138.894 229.734 131.518ZM202.449 94.6719C204.025 98.4674 204.812 102.729 204.812 107.455C204.812 112.11 204.025 116.371 202.449 120.238C200.945 124.105 198.868 127.4 196.219 130.121C193.569 132.842 190.454 134.955 186.873 136.459C183.364 137.963 179.604 138.715 175.594 138.715C171.583 138.715 167.788 137.927 164.207 136.352C160.698 134.704 157.618 132.484 154.969 129.691C152.391 126.898 150.35 123.604 148.846 119.809C147.342 116.013 146.59 111.895 146.59 107.455C146.59 102.729 147.342 98.4674 148.846 94.6719C150.35 90.8047 152.391 87.5104 154.969 84.7891C157.618 81.9961 160.698 79.8835 164.207 78.4512C167.788 76.9473 171.583 76.1953 175.594 76.1953C179.604 76.1953 183.364 76.9473 186.873 78.4512C190.454 79.8835 193.569 81.9961 196.219 84.7891C198.868 87.5104 200.945 90.8047 202.449 94.6719Z" fill="#24F2E1"/>
<mask id="path-2-outside-1_67_6" maskUnits="userSpaceOnUse" x="0" y="4.04883" width="706" height="165" fill="black">
<rect fill="white" y="4.04883" width="706" height="165"/>
<path d="M107.885 73.6914L86.4004 95.2832C85.3262 92.2754 83.8581 89.5898 81.9961 87.2266C80.1341 84.7917 78.0215 82.7507 75.6582 81.1035C73.3665 79.4564 70.86 78.2031 68.1387 77.3438C65.4173 76.4844 62.6243 76.0547 59.7598 76.0547C55.7493 76.0547 51.9538 76.8783 48.373 78.5254C44.8639 80.1725 41.7845 82.5 39.1348 85.5078C36.5566 88.444 34.5156 91.9531 33.0117 96.0352C31.5078 100.117 30.7559 104.629 30.7559 109.57C30.7559 113.581 31.5078 117.34 33.0117 120.85C34.5156 124.359 36.5566 127.438 39.1348 130.088C41.7845 132.738 44.8639 134.814 48.373 136.318C51.9538 137.822 55.7493 138.574 59.7598 138.574C62.6243 138.574 65.3815 138.18 68.0312 137.393C70.681 136.605 73.1517 135.495 75.4434 134.062C77.8066 132.559 79.8835 130.768 81.6738 128.691C83.5358 126.543 85.0397 124.18 86.1855 121.602L107.67 143.193C104.949 147.061 101.798 150.534 98.2168 153.613C94.7077 156.693 90.8763 159.307 86.7227 161.455C82.6406 163.604 78.3079 165.215 73.7246 166.289C69.2129 167.435 64.5579 168.008 59.7598 168.008C51.6673 168.008 44.0404 166.504 36.8789 163.496C29.7891 160.417 23.5586 156.227 18.1875 150.928C12.888 145.628 8.69857 139.434 5.61914 132.344C2.53971 125.254 1 117.663 1 109.57C1 100.762 2.53971 92.526 5.61914 84.8633C8.69857 77.2005 12.888 70.5404 18.1875 64.8828C23.5586 59.1536 29.7891 54.6419 36.8789 51.3477C44.0404 48.0534 51.6673 46.4062 59.7598 46.4062C64.5579 46.4062 69.2487 47.015 73.832 48.2324C78.487 49.4499 82.8913 51.2402 87.0449 53.6035C91.2702 55.8952 95.1374 58.724 98.6465 62.0898C102.227 65.4557 105.307 69.3229 107.885 73.6914Z"/>
<path d="M526.938 107.314C526.938 115.908 525.398 123.929 522.318 131.377C519.239 138.753 515.049 145.163 509.75 150.605C504.451 155.977 498.22 160.238 491.059 163.389C483.969 166.468 476.342 168.008 468.178 168.008C460.085 168.008 452.458 166.468 445.297 163.389C438.207 160.238 431.977 155.977 426.605 150.605C421.306 145.163 417.117 138.753 414.037 131.377C410.958 123.929 409.418 115.908 409.418 107.314C409.418 98.5775 410.958 90.485 414.037 83.0371C417.117 75.5892 421.306 69.1797 426.605 63.8086C431.977 58.3659 438.207 54.1048 445.297 51.0254C452.458 47.946 460.085 46.4062 468.178 46.4062C476.342 46.4062 483.969 47.8743 491.059 50.8105C498.22 53.6751 504.451 57.793 509.75 63.1641C515.049 68.4635 519.239 74.873 522.318 82.3926C525.398 89.8405 526.938 98.1478 526.938 107.314ZM497.396 107.314C497.396 102.588 496.609 98.3268 495.033 94.5312C493.529 90.6641 491.452 87.3698 488.803 84.6484C486.153 81.8555 483.038 79.7428 479.457 78.3105C475.948 76.8066 472.188 76.0547 468.178 76.0547C464.167 76.0547 460.372 76.8066 456.791 78.3105C453.282 79.7428 450.202 81.8555 447.553 84.6484C444.975 87.3698 442.934 90.6641 441.43 94.5312C439.926 98.3268 439.174 102.588 439.174 107.314C439.174 111.755 439.926 115.872 441.43 119.668C442.934 123.464 444.975 126.758 447.553 129.551C450.202 132.344 453.282 134.564 456.791 136.211C460.372 137.786 464.167 138.574 468.178 138.574C472.188 138.574 475.948 137.822 479.457 136.318C483.038 134.814 486.153 132.702 488.803 129.98C491.452 127.259 493.529 123.965 495.033 120.098C496.609 116.23 497.396 111.969 497.396 107.314Z"/>
<path d="M658.314 107.314C658.314 116.338 656.775 124.574 653.695 132.021C650.616 139.469 646.426 145.879 641.127 151.25C635.827 156.549 629.597 160.667 622.436 163.604C615.346 166.54 607.719 168.008 599.555 168.008C591.462 168.008 583.835 166.504 576.674 163.496C569.584 160.488 563.354 156.299 557.982 150.928C552.683 145.557 548.493 139.183 545.414 131.807C542.335 124.359 540.795 116.195 540.795 107.314V5.04883H570.229V58.7598C571.804 56.7546 573.702 54.9642 575.922 53.3887C578.214 51.8132 580.648 50.5241 583.227 49.5215C585.876 48.5189 588.598 47.7669 591.391 47.2656C594.184 46.6927 596.905 46.4062 599.555 46.4062C607.719 46.4062 615.346 47.946 622.436 51.0254C629.597 54.0332 635.827 58.2585 641.127 63.7012C646.426 69.1439 650.616 75.5892 653.695 83.0371C656.775 90.4134 658.314 98.5059 658.314 107.314ZM628.773 107.314C628.773 102.874 627.986 98.7565 626.41 94.9609C624.906 91.0938 622.829 87.7637 620.18 84.9707C617.53 82.1777 614.415 79.9935 610.834 78.418C607.325 76.8424 603.565 76.0547 599.555 76.0547C595.544 76.0547 591.749 76.9499 588.168 78.7402C584.659 80.459 581.579 82.7865 578.93 85.7227C576.28 88.5872 574.203 91.9173 572.699 95.7129C571.195 99.4368 570.443 103.304 570.443 107.314C570.443 111.755 571.195 115.872 572.699 119.668C574.203 123.464 576.28 126.758 578.93 129.551C581.579 132.344 584.659 134.564 588.168 136.211C591.749 137.786 595.544 138.574 599.555 138.574C603.565 138.574 607.325 137.786 610.834 136.211C614.415 134.564 617.53 132.344 620.18 129.551C622.829 126.758 624.906 123.464 626.41 119.668C627.986 115.872 628.773 111.755 628.773 107.314Z"/>
<path d="M394.271 165.859H365.053V92.8125C365.053 90.8073 364.659 88.9095 363.871 87.1191C363.155 85.3288 362.117 83.7533 360.756 82.3926C359.395 81.0319 357.82 79.9935 356.029 79.2773C354.239 78.4896 352.341 78.0957 350.336 78.0957C348.331 78.0957 346.433 78.4896 344.643 79.2773C342.924 79.9935 341.384 81.0319 340.023 82.3926C338.734 83.7533 337.696 85.3288 336.908 87.1191C336.192 88.9095 335.834 90.8073 335.834 92.8125V165.859H306.508V92.8125C306.508 90.8073 306.114 88.9095 305.326 87.1191C304.61 85.3288 303.572 83.7533 302.211 82.3926C300.85 81.0319 299.275 79.9935 297.484 79.2773C295.694 78.4896 293.796 78.0957 291.791 78.0957C289.786 78.0957 287.888 78.4896 286.098 79.2773C284.379 79.9935 282.839 81.0319 281.479 82.3926C280.189 83.7533 279.151 85.3288 278.363 87.1191C277.647 88.9095 277.289 90.8073 277.289 92.8125V165.859H247.963V92.8125C247.963 86.755 249.874 78.7042 252.166 73.3594C254.458 68.0145 257.992 63.5387 262.002 59.6191C266.084 56.1816 271.56 53.5319 276.43 51.6699C281.371 49.7363 286.492 48.7695 291.791 48.7695C297.162 48.7695 302.39 49.7721 307.475 51.7773C312.631 53.7826 317.143 57.2559 321.01 62.1973C322.8 59.7624 324.841 57.6855 327.133 55.9668C329.424 54.248 331.824 52.8516 334.33 51.7773C336.908 50.7031 339.558 49.9512 342.279 49.5215C345.001 49.0202 347.686 48.7695 350.336 48.7695C356.423 48.7695 362.117 49.9154 367.416 52.207C372.787 54.4987 377.442 57.6497 381.381 61.6602C385.391 65.599 388.542 70.2539 390.834 75.625C393.126 80.9961 394.271 86.7253 394.271 92.8125V165.859Z"/>
<path d="M704.184 165.859H674.643V50.8105H689.413H704.184V165.859Z"/>
</mask>
<path d="M107.885 73.6914L86.4004 95.2832C85.3262 92.2754 83.8581 89.5898 81.9961 87.2266C80.1341 84.7917 78.0215 82.7507 75.6582 81.1035C73.3665 79.4564 70.86 78.2031 68.1387 77.3438C65.4173 76.4844 62.6243 76.0547 59.7598 76.0547C55.7493 76.0547 51.9538 76.8783 48.373 78.5254C44.8639 80.1725 41.7845 82.5 39.1348 85.5078C36.5566 88.444 34.5156 91.9531 33.0117 96.0352C31.5078 100.117 30.7559 104.629 30.7559 109.57C30.7559 113.581 31.5078 117.34 33.0117 120.85C34.5156 124.359 36.5566 127.438 39.1348 130.088C41.7845 132.738 44.8639 134.814 48.373 136.318C51.9538 137.822 55.7493 138.574 59.7598 138.574C62.6243 138.574 65.3815 138.18 68.0312 137.393C70.681 136.605 73.1517 135.495 75.4434 134.062C77.8066 132.559 79.8835 130.768 81.6738 128.691C83.5358 126.543 85.0397 124.18 86.1855 121.602L107.67 143.193C104.949 147.061 101.798 150.534 98.2168 153.613C94.7077 156.693 90.8763 159.307 86.7227 161.455C82.6406 163.604 78.3079 165.215 73.7246 166.289C69.2129 167.435 64.5579 168.008 59.7598 168.008C51.6673 168.008 44.0404 166.504 36.8789 163.496C29.7891 160.417 23.5586 156.227 18.1875 150.928C12.888 145.628 8.69857 139.434 5.61914 132.344C2.53971 125.254 1 117.663 1 109.57C1 100.762 2.53971 92.526 5.61914 84.8633C8.69857 77.2005 12.888 70.5404 18.1875 64.8828C23.5586 59.1536 29.7891 54.6419 36.8789 51.3477C44.0404 48.0534 51.6673 46.4062 59.7598 46.4062C64.5579 46.4062 69.2487 47.015 73.832 48.2324C78.487 49.4499 82.8913 51.2402 87.0449 53.6035C91.2702 55.8952 95.1374 58.724 98.6465 62.0898C102.227 65.4557 105.307 69.3229 107.885 73.6914Z" fill="#FBF7FF"/>
<path d="M526.938 107.314C526.938 115.908 525.398 123.929 522.318 131.377C519.239 138.753 515.049 145.163 509.75 150.605C504.451 155.977 498.22 160.238 491.059 163.389C483.969 166.468 476.342 168.008 468.178 168.008C460.085 168.008 452.458 166.468 445.297 163.389C438.207 160.238 431.977 155.977 426.605 150.605C421.306 145.163 417.117 138.753 414.037 131.377C410.958 123.929 409.418 115.908 409.418 107.314C409.418 98.5775 410.958 90.485 414.037 83.0371C417.117 75.5892 421.306 69.1797 426.605 63.8086C431.977 58.3659 438.207 54.1048 445.297 51.0254C452.458 47.946 460.085 46.4062 468.178 46.4062C476.342 46.4062 483.969 47.8743 491.059 50.8105C498.22 53.6751 504.451 57.793 509.75 63.1641C515.049 68.4635 519.239 74.873 522.318 82.3926C525.398 89.8405 526.938 98.1478 526.938 107.314ZM497.396 107.314C497.396 102.588 496.609 98.3268 495.033 94.5312C493.529 90.6641 491.452 87.3698 488.803 84.6484C486.153 81.8555 483.038 79.7428 479.457 78.3105C475.948 76.8066 472.188 76.0547 468.178 76.0547C464.167 76.0547 460.372 76.8066 456.791 78.3105C453.282 79.7428 450.202 81.8555 447.553 84.6484C444.975 87.3698 442.934 90.6641 441.43 94.5312C439.926 98.3268 439.174 102.588 439.174 107.314C439.174 111.755 439.926 115.872 441.43 119.668C442.934 123.464 444.975 126.758 447.553 129.551C450.202 132.344 453.282 134.564 456.791 136.211C460.372 137.786 464.167 138.574 468.178 138.574C472.188 138.574 475.948 137.822 479.457 136.318C483.038 134.814 486.153 132.702 488.803 129.98C491.452 127.259 493.529 123.965 495.033 120.098C496.609 116.23 497.396 111.969 497.396 107.314Z" fill="#FBF7FF"/>
<path d="M658.314 107.314C658.314 116.338 656.775 124.574 653.695 132.021C650.616 139.469 646.426 145.879 641.127 151.25C635.827 156.549 629.597 160.667 622.436 163.604C615.346 166.54 607.719 168.008 599.555 168.008C591.462 168.008 583.835 166.504 576.674 163.496C569.584 160.488 563.354 156.299 557.982 150.928C552.683 145.557 548.493 139.183 545.414 131.807C542.335 124.359 540.795 116.195 540.795 107.314V5.04883H570.229V58.7598C571.804 56.7546 573.702 54.9642 575.922 53.3887C578.214 51.8132 580.648 50.5241 583.227 49.5215C585.876 48.5189 588.598 47.7669 591.391 47.2656C594.184 46.6927 596.905 46.4062 599.555 46.4062C607.719 46.4062 615.346 47.946 622.436 51.0254C629.597 54.0332 635.827 58.2585 641.127 63.7012C646.426 69.1439 650.616 75.5892 653.695 83.0371C656.775 90.4134 658.314 98.5059 658.314 107.314ZM628.773 107.314C628.773 102.874 627.986 98.7565 626.41 94.9609C624.906 91.0938 622.829 87.7637 620.18 84.9707C617.53 82.1777 614.415 79.9935 610.834 78.418C607.325 76.8424 603.565 76.0547 599.555 76.0547C595.544 76.0547 591.749 76.9499 588.168 78.7402C584.659 80.459 581.579 82.7865 578.93 85.7227C576.28 88.5872 574.203 91.9173 572.699 95.7129C571.195 99.4368 570.443 103.304 570.443 107.314C570.443 111.755 571.195 115.872 572.699 119.668C574.203 123.464 576.28 126.758 578.93 129.551C581.579 132.344 584.659 134.564 588.168 136.211C591.749 137.786 595.544 138.574 599.555 138.574C603.565 138.574 607.325 137.786 610.834 136.211C614.415 134.564 617.53 132.344 620.18 129.551C622.829 126.758 624.906 123.464 626.41 119.668C627.986 115.872 628.773 111.755 628.773 107.314Z" fill="#FBF7FF"/>
<path d="M394.271 165.859H365.053V92.8125C365.053 90.8073 364.659 88.9095 363.871 87.1191C363.155 85.3288 362.117 83.7533 360.756 82.3926C359.395 81.0319 357.82 79.9935 356.029 79.2773C354.239 78.4896 352.341 78.0957 350.336 78.0957C348.331 78.0957 346.433 78.4896 344.643 79.2773C342.924 79.9935 341.384 81.0319 340.023 82.3926C338.734 83.7533 337.696 85.3288 336.908 87.1191C336.192 88.9095 335.834 90.8073 335.834 92.8125V165.859H306.508V92.8125C306.508 90.8073 306.114 88.9095 305.326 87.1191C304.61 85.3288 303.572 83.7533 302.211 82.3926C300.85 81.0319 299.275 79.9935 297.484 79.2773C295.694 78.4896 293.796 78.0957 291.791 78.0957C289.786 78.0957 287.888 78.4896 286.098 79.2773C284.379 79.9935 282.839 81.0319 281.479 82.3926C280.189 83.7533 279.151 85.3288 278.363 87.1191C277.647 88.9095 277.289 90.8073 277.289 92.8125V165.859H247.963V92.8125C247.963 86.755 249.874 78.7042 252.166 73.3594C254.458 68.0145 257.992 63.5387 262.002 59.6191C266.084 56.1816 271.56 53.5319 276.43 51.6699C281.371 49.7363 286.492 48.7695 291.791 48.7695C297.162 48.7695 302.39 49.7721 307.475 51.7773C312.631 53.7826 317.143 57.2559 321.01 62.1973C322.8 59.7624 324.841 57.6855 327.133 55.9668C329.424 54.248 331.824 52.8516 334.33 51.7773C336.908 50.7031 339.558 49.9512 342.279 49.5215C345.001 49.0202 347.686 48.7695 350.336 48.7695C356.423 48.7695 362.117 49.9154 367.416 52.207C372.787 54.4987 377.442 57.6497 381.381 61.6602C385.391 65.599 388.542 70.2539 390.834 75.625C393.126 80.9961 394.271 86.7253 394.271 92.8125V165.859Z" fill="#FBF7FF"/>
<path d="M704.184 165.859H674.643V50.8105H689.413H704.184V165.859Z" fill="#FBF7FF"/>
<path d="M107.885 73.6914L86.4004 95.2832C85.3262 92.2754 83.8581 89.5898 81.9961 87.2266C80.1341 84.7917 78.0215 82.7507 75.6582 81.1035C73.3665 79.4564 70.86 78.2031 68.1387 77.3438C65.4173 76.4844 62.6243 76.0547 59.7598 76.0547C55.7493 76.0547 51.9538 76.8783 48.373 78.5254C44.8639 80.1725 41.7845 82.5 39.1348 85.5078C36.5566 88.444 34.5156 91.9531 33.0117 96.0352C31.5078 100.117 30.7559 104.629 30.7559 109.57C30.7559 113.581 31.5078 117.34 33.0117 120.85C34.5156 124.359 36.5566 127.438 39.1348 130.088C41.7845 132.738 44.8639 134.814 48.373 136.318C51.9538 137.822 55.7493 138.574 59.7598 138.574C62.6243 138.574 65.3815 138.18 68.0312 137.393C70.681 136.605 73.1517 135.495 75.4434 134.062C77.8066 132.559 79.8835 130.768 81.6738 128.691C83.5358 126.543 85.0397 124.18 86.1855 121.602L107.67 143.193C104.949 147.061 101.798 150.534 98.2168 153.613C94.7077 156.693 90.8763 159.307 86.7227 161.455C82.6406 163.604 78.3079 165.215 73.7246 166.289C69.2129 167.435 64.5579 168.008 59.7598 168.008C51.6673 168.008 44.0404 166.504 36.8789 163.496C29.7891 160.417 23.5586 156.227 18.1875 150.928C12.888 145.628 8.69857 139.434 5.61914 132.344C2.53971 125.254 1 117.663 1 109.57C1 100.762 2.53971 92.526 5.61914 84.8633C8.69857 77.2005 12.888 70.5404 18.1875 64.8828C23.5586 59.1536 29.7891 54.6419 36.8789 51.3477C44.0404 48.0534 51.6673 46.4062 59.7598 46.4062C64.5579 46.4062 69.2487 47.015 73.832 48.2324C78.487 49.4499 82.8913 51.2402 87.0449 53.6035C91.2702 55.8952 95.1374 58.724 98.6465 62.0898C102.227 65.4557 105.307 69.3229 107.885 73.6914Z" stroke="white" stroke-width="2" mask="url(#path-2-outside-1_67_6)"/>
<path d="M526.938 107.314C526.938 115.908 525.398 123.929 522.318 131.377C519.239 138.753 515.049 145.163 509.75 150.605C504.451 155.977 498.22 160.238 491.059 163.389C483.969 166.468 476.342 168.008 468.178 168.008C460.085 168.008 452.458 166.468 445.297 163.389C438.207 160.238 431.977 155.977 426.605 150.605C421.306 145.163 417.117 138.753 414.037 131.377C410.958 123.929 409.418 115.908 409.418 107.314C409.418 98.5775 410.958 90.485 414.037 83.0371C417.117 75.5892 421.306 69.1797 426.605 63.8086C431.977 58.3659 438.207 54.1048 445.297 51.0254C452.458 47.946 460.085 46.4062 468.178 46.4062C476.342 46.4062 483.969 47.8743 491.059 50.8105C498.22 53.6751 504.451 57.793 509.75 63.1641C515.049 68.4635 519.239 74.873 522.318 82.3926C525.398 89.8405 526.938 98.1478 526.938 107.314ZM497.396 107.314C497.396 102.588 496.609 98.3268 495.033 94.5312C493.529 90.6641 491.452 87.3698 488.803 84.6484C486.153 81.8555 483.038 79.7428 479.457 78.3105C475.948 76.8066 472.188 76.0547 468.178 76.0547C464.167 76.0547 460.372 76.8066 456.791 78.3105C453.282 79.7428 450.202 81.8555 447.553 84.6484C444.975 87.3698 442.934 90.6641 441.43 94.5312C439.926 98.3268 439.174 102.588 439.174 107.314C439.174 111.755 439.926 115.872 441.43 119.668C442.934 123.464 444.975 126.758 447.553 129.551C450.202 132.344 453.282 134.564 456.791 136.211C460.372 137.786 464.167 138.574 468.178 138.574C472.188 138.574 475.948 137.822 479.457 136.318C483.038 134.814 486.153 132.702 488.803 129.98C491.452 127.259 493.529 123.965 495.033 120.098C496.609 116.23 497.396 111.969 497.396 107.314Z" stroke="white" stroke-width="2" mask="url(#path-2-outside-1_67_6)"/>
<path d="M658.314 107.314C658.314 116.338 656.775 124.574 653.695 132.021C650.616 139.469 646.426 145.879 641.127 151.25C635.827 156.549 629.597 160.667 622.436 163.604C615.346 166.54 607.719 168.008 599.555 168.008C591.462 168.008 583.835 166.504 576.674 163.496C569.584 160.488 563.354 156.299 557.982 150.928C552.683 145.557 548.493 139.183 545.414 131.807C542.335 124.359 540.795 116.195 540.795 107.314V5.04883H570.229V58.7598C571.804 56.7546 573.702 54.9642 575.922 53.3887C578.214 51.8132 580.648 50.5241 583.227 49.5215C585.876 48.5189 588.598 47.7669 591.391 47.2656C594.184 46.6927 596.905 46.4062 599.555 46.4062C607.719 46.4062 615.346 47.946 622.436 51.0254C629.597 54.0332 635.827 58.2585 641.127 63.7012C646.426 69.1439 650.616 75.5892 653.695 83.0371C656.775 90.4134 658.314 98.5059 658.314 107.314ZM628.773 107.314C628.773 102.874 627.986 98.7565 626.41 94.9609C624.906 91.0938 622.829 87.7637 620.18 84.9707C617.53 82.1777 614.415 79.9935 610.834 78.418C607.325 76.8424 603.565 76.0547 599.555 76.0547C595.544 76.0547 591.749 76.9499 588.168 78.7402C584.659 80.459 581.579 82.7865 578.93 85.7227C576.28 88.5872 574.203 91.9173 572.699 95.7129C571.195 99.4368 570.443 103.304 570.443 107.314C570.443 111.755 571.195 115.872 572.699 119.668C574.203 123.464 576.28 126.758 578.93 129.551C581.579 132.344 584.659 134.564 588.168 136.211C591.749 137.786 595.544 138.574 599.555 138.574C603.565 138.574 607.325 137.786 610.834 136.211C614.415 134.564 617.53 132.344 620.18 129.551C622.829 126.758 624.906 123.464 626.41 119.668C627.986 115.872 628.773 111.755 628.773 107.314Z" stroke="white" stroke-width="2" mask="url(#path-2-outside-1_67_6)"/>
<path d="M394.271 165.859H365.053V92.8125C365.053 90.8073 364.659 88.9095 363.871 87.1191C363.155 85.3288 362.117 83.7533 360.756 82.3926C359.395 81.0319 357.82 79.9935 356.029 79.2773C354.239 78.4896 352.341 78.0957 350.336 78.0957C348.331 78.0957 346.433 78.4896 344.643 79.2773C342.924 79.9935 341.384 81.0319 340.023 82.3926C338.734 83.7533 337.696 85.3288 336.908 87.1191C336.192 88.9095 335.834 90.8073 335.834 92.8125V165.859H306.508V92.8125C306.508 90.8073 306.114 88.9095 305.326 87.1191C304.61 85.3288 303.572 83.7533 302.211 82.3926C300.85 81.0319 299.275 79.9935 297.484 79.2773C295.694 78.4896 293.796 78.0957 291.791 78.0957C289.786 78.0957 287.888 78.4896 286.098 79.2773C284.379 79.9935 282.839 81.0319 281.479 82.3926C280.189 83.7533 279.151 85.3288 278.363 87.1191C277.647 88.9095 277.289 90.8073 277.289 92.8125V165.859H247.963V92.8125C247.963 86.755 249.874 78.7042 252.166 73.3594C254.458 68.0145 257.992 63.5387 262.002 59.6191C266.084 56.1816 271.56 53.5319 276.43 51.6699C281.371 49.7363 286.492 48.7695 291.791 48.7695C297.162 48.7695 302.39 49.7721 307.475 51.7773C312.631 53.7826 317.143 57.2559 321.01 62.1973C322.8 59.7624 324.841 57.6855 327.133 55.9668C329.424 54.248 331.824 52.8516 334.33 51.7773C336.908 50.7031 339.558 49.9512 342.279 49.5215C345.001 49.0202 347.686 48.7695 350.336 48.7695C356.423 48.7695 362.117 49.9154 367.416 52.207C372.787 54.4987 377.442 57.6497 381.381 61.6602C385.391 65.599 388.542 70.2539 390.834 75.625C393.126 80.9961 394.271 86.7253 394.271 92.8125V165.859Z" stroke="white" stroke-width="2" mask="url(#path-2-outside-1_67_6)"/>
<path d="M704.184 165.859H674.643V50.8105H689.413H704.184V165.859Z" stroke="white" stroke-width="2" mask="url(#path-2-outside-1_67_6)"/>
<path d="M709.424 19.5508C709.424 22.2721 708.887 24.8145 707.812 27.1777C706.81 29.541 705.413 31.6178 703.623 33.4082C701.833 35.127 699.72 36.5234 697.285 37.5977C694.922 38.6003 692.38 39.1016 689.658 39.1016C686.937 39.1016 684.359 38.6003 681.924 37.5977C679.561 36.5234 677.484 35.127 675.693 33.4082C673.975 31.6178 672.578 29.541 671.504 27.1777C670.501 24.8145 670 22.2721 670 19.5508C670 16.901 670.501 14.3945 671.504 12.0312C672.578 9.59635 673.975 7.51953 675.693 5.80078C677.484 4.01042 679.561 2.61393 681.924 1.61133C684.359 0.537109 686.937 0 689.658 0C692.38 0 694.922 0.537109 697.285 1.61133C699.72 2.61393 701.833 4.01042 703.623 5.80078C705.413 7.51953 706.81 9.59635 707.812 12.0312C708.887 14.3945 709.424 16.901 709.424 19.5508Z" fill="#7B20E9"/>
</svg>
