<svg width="709" height="169" viewBox="0 0 709 169" fill="none" xmlns="http://www.w3.org/2000/svg">
<path fill-rule="evenodd" clip-rule="evenodd" d="M228.733 131.517C231.812 124.069 233.352 116.048 233.352 107.455C233.352 98.2881 231.812 89.9809 228.733 82.533C225.654 75.0135 221.464 68.604 216.165 63.3046C210.865 57.9335 204.635 53.8157 197.473 50.9511C190.384 48.015 182.757 46.5469 174.593 46.5469C166.5 46.5469 158.873 48.0866 151.712 51.166C144.622 54.2454 138.392 58.5064 133.021 63.9491C127.721 69.3202 123.532 75.7297 120.452 83.1775C117.373 90.6254 115.833 98.7178 115.833 107.455C115.833 116.048 117.373 124.069 120.452 131.517C120.94 132.686 121.456 133.83 121.999 134.95V162.999H150.55C150.935 163.179 151.322 163.355 151.712 163.529C158.873 166.608 166.5 168.148 174.593 168.148C182.757 168.148 190.384 166.608 197.473 163.529C204.635 160.378 210.865 156.117 216.165 150.746C221.464 145.303 225.654 138.893 228.733 131.517ZM201.448 94.6716C203.024 98.4672 203.811 102.728 203.811 107.455C203.811 112.11 203.024 116.371 201.448 120.238C199.944 124.105 197.867 127.399 195.218 130.121C192.568 132.842 189.453 134.955 185.872 136.459C182.363 137.962 178.603 138.714 174.593 138.714C170.582 138.714 166.787 137.927 163.206 136.351C159.697 134.704 156.618 132.484 153.968 129.691C151.39 126.898 149.349 123.604 147.845 119.808C146.341 116.013 145.589 111.895 145.589 107.455C145.589 102.728 146.341 98.4672 147.845 94.6716C149.349 90.8045 151.39 87.5102 153.968 84.7889C156.618 81.9959 159.697 79.8833 163.206 78.451C166.787 76.9471 170.582 76.1952 174.593 76.1952C178.603 76.1952 182.363 76.9471 185.872 78.451C189.453 79.8833 192.568 81.9959 195.218 84.7889C197.867 87.5102 199.944 90.8045 201.448 94.6716Z" fill="#24F2E1"/>
<path d="M106.884 73.6901L85.3999 95.2817C84.3257 92.2739 82.8576 89.5884 80.9957 87.2251C79.1337 84.7903 77.0211 82.7493 74.6578 81.1021C72.3661 79.455 69.8597 78.2018 67.1383 77.3424C64.417 76.483 61.624 76.0533 58.7595 76.0533C54.7491 76.0533 50.9535 76.8769 47.3728 78.524C43.8637 80.1711 40.7843 82.4986 38.1346 85.5064C35.5564 88.4426 33.5154 91.9517 32.0115 96.0337C30.5076 100.116 29.7557 104.627 29.7557 109.569C29.7557 113.579 30.5076 117.339 32.0115 120.848C33.5154 124.357 35.5564 127.437 38.1346 130.086C40.7843 132.736 43.8637 134.813 47.3728 136.317C50.9535 137.821 54.7491 138.573 58.7595 138.573C61.624 138.573 64.3812 138.179 67.0309 137.391C69.6806 136.603 72.1513 135.493 74.443 134.061C76.8062 132.557 78.883 130.767 80.6734 128.69C82.5354 126.541 84.0393 124.178 85.1851 121.6L106.669 143.192C103.948 147.059 100.797 150.532 97.2163 153.612C93.7072 156.691 89.8758 159.305 85.7222 161.453C81.6402 163.602 77.3075 165.213 72.7242 166.287C68.2125 167.433 63.5576 168.006 58.7595 168.006C50.667 168.006 43.0401 166.502 35.8787 163.494C28.7889 160.415 22.5585 156.225 17.1874 150.926C11.888 145.627 7.69853 139.432 4.61912 132.342C1.53971 125.252 0 117.661 0 109.569C0 100.76 1.53971 92.5246 4.61912 84.8619C7.69853 77.1992 11.888 70.539 17.1874 64.8815C22.5585 59.1524 28.7889 54.6407 35.8787 51.3464C43.0401 48.0522 50.667 46.4051 58.7595 46.4051C63.5576 46.4051 68.2483 47.0138 72.8316 48.2312C77.4866 49.4487 81.8908 51.239 86.0445 53.6023C90.2697 55.8939 94.1369 58.7227 97.646 62.0886C101.227 65.4544 104.306 69.3216 106.884 73.6901Z" fill="#001F1C"/>
<path d="M525.935 107.313C525.935 115.907 524.395 123.927 521.316 131.375C518.236 138.752 514.047 145.161 508.747 150.604C503.448 155.975 497.217 160.236 490.056 163.387C482.966 166.466 475.339 168.006 467.175 168.006C459.083 168.006 451.456 166.466 444.294 163.387C437.205 160.236 430.974 155.975 425.603 150.604C420.304 145.161 416.114 138.752 413.035 131.375C409.955 123.927 408.416 115.907 408.416 107.313C408.416 98.576 409.955 90.4836 413.035 83.0357C416.114 75.5878 420.304 69.1784 425.603 63.8073C430.974 58.3646 437.205 54.1036 444.294 51.0242C451.456 47.9448 459.083 46.4051 467.175 46.4051C475.339 46.4051 482.966 47.8731 490.056 50.8093C497.217 53.6739 503.448 57.7917 508.747 63.1628C514.047 68.4622 518.236 74.8717 521.316 82.3912C524.395 89.8391 525.935 98.1463 525.935 107.313ZM496.394 107.313C496.394 102.586 495.606 98.3253 494.031 94.5298C492.527 90.6626 490.45 87.3684 487.8 84.647C485.15 81.8541 482.035 79.7415 478.454 78.3092C474.945 76.8053 471.186 76.0533 467.175 76.0533C463.165 76.0533 459.369 76.8053 455.789 78.3092C452.279 79.7415 449.2 81.8541 446.55 84.647C443.972 87.3684 441.931 90.6626 440.427 94.5298C438.923 98.3253 438.171 102.586 438.171 107.313C438.171 111.753 438.923 115.871 440.427 119.666C441.931 123.462 443.972 126.756 446.55 129.549C449.2 132.342 452.279 134.562 455.789 136.209C459.369 137.785 463.165 138.573 467.175 138.573C471.186 138.573 474.945 137.821 478.454 136.317C482.035 134.813 485.15 132.7 487.8 129.979C490.45 127.257 492.527 123.963 494.031 120.096C495.606 116.229 496.394 111.968 496.394 107.313Z" fill="#001F1C"/>
<path d="M657.311 107.313C657.311 116.336 655.771 124.572 652.692 132.02C649.612 139.468 645.423 145.877 640.124 151.248C634.824 156.548 628.594 160.666 621.432 163.602C614.342 166.538 606.715 168.006 598.551 168.006C590.459 168.006 582.832 166.502 575.671 163.494C568.581 160.486 562.35 156.297 556.979 150.926C551.68 145.555 547.491 139.181 544.411 131.805C541.332 124.357 539.792 116.193 539.792 107.313V5.04785H569.225V58.7585C570.801 56.7533 572.699 54.9629 574.919 53.3874C577.21 51.8119 579.645 50.5229 582.223 49.5203C584.873 48.5177 587.595 47.7657 590.387 47.2644C593.18 46.6915 595.902 46.4051 598.551 46.4051C606.715 46.4051 614.342 47.9448 621.432 51.0242C628.594 54.032 634.824 58.2572 640.124 63.6999C645.423 69.1426 649.612 75.5878 652.692 83.0357C655.771 90.412 657.311 98.5044 657.311 107.313ZM627.77 107.313C627.77 102.873 626.982 98.755 625.407 94.9595C623.903 91.0923 621.826 87.7623 619.176 84.9693C616.527 82.1763 613.411 79.9921 609.831 78.4166C606.322 76.8411 602.562 76.0533 598.551 76.0533C594.541 76.0533 590.746 76.9485 587.165 78.7389C583.656 80.4576 580.576 82.7851 577.927 85.7212C575.277 88.5858 573.2 91.9159 571.696 95.7114C570.192 99.4354 569.44 103.303 569.44 107.313C569.44 111.753 570.192 115.871 571.696 119.666C573.2 123.462 575.277 126.756 577.927 129.549C580.576 132.342 583.656 134.562 587.165 136.209C590.746 137.785 594.541 138.573 598.551 138.573C602.562 138.573 606.322 137.785 609.831 136.209C613.411 134.562 616.527 132.342 619.176 129.549C621.826 126.756 623.903 123.462 625.407 119.666C626.982 115.871 627.77 111.753 627.77 107.313Z" fill="#001F1C"/>
<path d="M393.269 165.858H364.051V92.8111C364.051 90.8059 363.657 88.9081 362.869 87.1177C362.153 85.3274 361.115 83.7519 359.754 82.3912C358.393 81.0305 356.818 79.9921 355.027 79.276C353.237 78.4882 351.339 78.0943 349.334 78.0943C347.329 78.0943 345.431 78.4882 343.641 79.276C341.922 79.9921 340.382 81.0305 339.022 82.3912C337.733 83.7519 336.694 85.3274 335.906 87.1177C335.19 88.9081 334.832 90.8059 334.832 92.8111V165.858H305.506V92.8111C305.506 90.8059 305.112 88.9081 304.325 87.1177C303.608 85.3274 302.57 83.7519 301.209 82.3912C299.849 81.0305 298.273 79.9921 296.483 79.276C294.692 78.4882 292.795 78.0943 290.789 78.0943C288.784 78.0943 286.886 78.4882 285.096 79.276C283.377 79.9921 281.838 81.0305 280.477 82.3912C279.188 83.7519 278.15 85.3274 277.362 87.1177C276.646 88.9081 276.288 90.8059 276.288 92.8111V165.858H246.962V92.8111C246.962 86.7536 248.873 78.7028 251.165 73.358C253.456 68.0132 256.99 63.5374 261.001 59.6179C265.083 56.1804 270.558 53.5307 275.428 51.6687C280.37 49.7351 285.49 48.7683 290.789 48.7683C296.161 48.7683 301.388 49.7709 306.473 51.7761C311.629 53.7813 316.141 57.2546 320.008 62.196C321.798 59.7611 323.839 57.6843 326.131 55.9655C328.423 54.2468 330.822 52.8503 333.328 51.7761C335.906 50.7019 338.556 49.95 341.277 49.5203C343.999 49.019 346.684 48.7683 349.334 48.7683C355.421 48.7683 361.115 49.9141 366.414 52.2058C371.785 54.4975 376.44 57.6485 380.379 61.6589C384.389 65.5977 387.54 70.2526 389.832 75.6236C392.124 80.9947 393.269 86.7238 393.269 92.8111V165.858Z" fill="#001F1C"/>
<path d="M703.18 165.858H673.639V50.8093H688.409H703.18V165.858Z" fill="#001F1C"/>
<path d="M708.42 19.5507C708.42 22.272 707.883 24.8143 706.809 27.1776C705.806 29.5409 704.41 31.6177 702.619 33.408C700.829 35.1268 698.716 36.5232 696.281 37.5975C693.918 38.6001 691.376 39.1014 688.654 39.1014C685.933 39.1014 683.355 38.6001 680.92 37.5975C678.557 36.5232 676.48 35.1268 674.69 33.408C672.971 31.6177 671.574 29.5409 670.5 27.1776C669.498 24.8143 668.996 22.272 668.996 19.5507C668.996 16.901 669.498 14.3945 670.5 12.0312C671.574 9.5963 672.971 7.51949 674.69 5.80075C676.48 4.0104 678.557 2.61392 680.92 1.61132C683.355 0.537106 685.933 0 688.654 0C691.376 0 693.918 0.537106 696.281 1.61132C698.716 2.61392 700.829 4.0104 702.619 5.80075C704.41 7.51949 705.806 9.5963 706.809 12.0312C707.883 14.3945 708.42 16.901 708.42 19.5507Z" fill="#7B20E9"/>
</svg>
